<svg version="1.1" id="Layer_1" xmlns="http://www.w3.org/2000/svg" xmlns:xlink="http://www.w3.org/1999/xlink" x="0px" y="0px"
	 width="100%" viewBox="0 0 500 500" enable-background="new 0 0 500 500" xml:space="preserve">
<path fill="#000000" opacity="1.000000" stroke="none" 
	d="
M233.000000,501.000000 
	C155.333359,501.000000 78.166702,501.000000 1.000041,501.000000 
	C1.000028,334.333405 1.000028,167.666779 1.000014,1.000131 
	C167.666565,1.000087 334.333130,1.000087 500.999756,1.000044 
	C500.999847,167.666519 500.999847,334.333038 500.999939,500.999786 
	C411.833344,501.000000 322.666656,501.000000 233.000000,501.000000 
M216.499847,360.967773 
	C221.497040,360.924377 226.494186,360.869507 231.491455,360.840363 
	C237.993866,360.802460 238.319427,360.507538 238.321030,354.098267 
	C238.328064,325.933838 238.324066,297.769409 238.324081,269.604980 
	C238.324081,267.856384 238.324081,266.107758 238.324081,264.169067 
	C245.955063,264.169067 252.792770,264.395996 259.604401,264.073151 
	C263.000275,263.912201 264.552399,265.100983 265.920654,268.097931 
	C279.157837,297.092285 292.655334,325.968262 305.785980,355.010315 
	C307.841278,359.556213 310.398529,361.082306 315.249023,360.942932 
	C326.678345,360.614441 338.123535,360.837585 349.911102,360.837585 
	C349.911102,378.009552 350.055481,394.642181 349.819122,411.269440 
	C349.752197,415.979156 351.449951,417.329224 355.938171,417.244965 
	C367.932983,417.019623 379.934814,417.175659 391.933868,417.166382 
	C399.125763,417.160797 399.204437,417.078369 399.204742,409.906311 
	C399.207092,358.743713 399.205994,307.581146 399.205994,256.418549 
	C399.205994,254.804901 399.206024,253.191238 399.206024,251.373230 
	C382.597260,251.373230 366.513367,251.373230 349.844788,251.373230 
	C349.844788,281.508087 349.844788,311.461639 349.844788,341.415192 
	C349.543793,341.461090 349.242798,341.506958 348.941803,341.552826 
	C335.969604,313.501617 322.997406,285.450378 309.876556,257.077728 
	C335.913849,247.096832 350.621826,228.829529 353.536194,201.169083 
	C355.641083,201.169083 357.438934,201.169098 359.236786,201.169083 
	C388.401123,201.169037 417.565796,201.102798 446.729492,201.238281 
	C451.251160,201.259293 452.972595,199.767059 452.864929,195.157761 
	C452.623749,184.830902 452.793427,174.494507 452.788147,164.162003 
	C452.784454,157.005661 452.621643,156.834259 445.528412,156.833115 
	C414.030914,156.828033 382.533173,156.771133 351.036316,156.914124 
	C347.495789,156.930191 345.638214,155.776520 343.406128,152.966934 
	C338.690765,147.031601 333.753967,140.898712 327.721252,136.459671 
	C314.352295,126.622406 298.599579,122.561546 282.230774,122.131805 
	C259.914856,121.545929 237.574600,121.884155 215.244781,121.832970 
	C209.411942,121.819595 203.564865,121.607208 197.755249,121.974808 
	C196.115829,122.078545 193.236664,123.882149 193.211044,124.960373 
	C192.896149,138.220428 193.005890,151.490585 193.005890,165.001175 
	C220.346252,165.001175 247.152786,164.843704 273.954590,165.130142 
	C279.510437,165.189529 285.057892,166.846695 290.591980,167.861557 
	C294.799377,168.633133 296.622437,170.958176 296.163330,175.501740 
	C295.713257,179.955902 296.065277,184.491119 296.065277,188.990753 
	C296.065277,200.293106 296.065277,200.293106 307.200409,201.607834 
	C305.542725,207.363205 302.518768,212.352051 297.183014,214.597031 
	C291.170135,217.126923 284.601044,219.615036 278.218933,219.763763 
	C251.735687,220.380936 225.231674,220.108627 198.735291,220.162018 
	C196.952698,220.165604 195.170120,220.162460 193.032608,220.162460 
	C193.032608,240.530823 193.032608,260.422394 193.032608,280.313965 
	C191.458023,278.629517 190.680161,276.733643 189.936508,274.824432 
	C170.658447,225.331329 151.402954,175.829376 132.030212,126.373352 
	C131.348541,124.633125 129.508240,123.346764 128.207947,121.848877 
	C126.863190,123.296120 124.924606,124.512428 124.259048,126.223816 
	C94.717812,202.184662 65.285507,278.187866 35.852940,354.190948 
	C33.708038,359.729706 34.479836,360.805115 40.650768,360.826355 
	C51.983063,360.865356 63.319908,360.656433 74.645889,360.926605 
	C79.176895,361.034698 81.463058,359.594238 82.987030,355.157074 
	C94.581955,321.397400 106.421295,287.721558 118.207069,254.027527 
	C121.365837,244.997040 124.602524,235.993820 128.162781,225.965958 
	C129.082489,228.537064 129.612686,230.007797 130.135071,231.481308 
	C144.779846,272.790405 159.461823,314.086426 174.005020,355.431244 
	C175.355011,359.269135 177.196121,361.025787 181.507965,360.933777 
	C192.833252,360.692139 204.168640,360.924408 216.499847,360.967773 
z"/>
<path fill="#FEFEFE" opacity="1.000000" stroke="none" 
	d="
M215.999939,360.967804 
	C204.168640,360.924408 192.833252,360.692139 181.507965,360.933777 
	C177.196121,361.025787 175.355011,359.269135 174.005020,355.431244 
	C159.461823,314.086426 144.779846,272.790405 130.135071,231.481308 
	C129.612686,230.007797 129.082489,228.537064 128.162781,225.965958 
	C124.602524,235.993820 121.365837,244.997040 118.207069,254.027527 
	C106.421295,287.721558 94.581955,321.397400 82.987030,355.157074 
	C81.463058,359.594238 79.176895,361.034698 74.645889,360.926605 
	C63.319908,360.656433 51.983063,360.865356 40.650768,360.826355 
	C34.479836,360.805115 33.708038,359.729706 35.852940,354.190948 
	C65.285507,278.187866 94.717812,202.184662 124.259048,126.223816 
	C124.924606,124.512428 126.863190,123.296120 128.207947,121.848877 
	C129.508240,123.346764 131.348541,124.633125 132.030212,126.373352 
	C151.402954,175.829376 170.658447,225.331329 189.936508,274.824432 
	C190.680161,276.733643 191.458023,278.629517 193.032608,280.313965 
	C193.032608,260.422394 193.032608,240.530823 193.032608,220.162460 
	C195.170120,220.162460 196.952698,220.165604 198.735291,220.162018 
	C225.231674,220.108627 251.735687,220.380936 278.218933,219.763763 
	C284.601044,219.615036 291.170135,217.126923 297.183014,214.597031 
	C302.518768,212.352051 305.542725,207.363205 307.200409,201.607834 
	C296.065277,200.293106 296.065277,200.293106 296.065277,188.990753 
	C296.065277,184.491119 295.713257,179.955902 296.163330,175.501740 
	C296.622437,170.958176 294.799377,168.633133 290.591980,167.861557 
	C285.057892,166.846695 279.510437,165.189529 273.954590,165.130142 
	C247.152786,164.843704 220.346252,165.001175 193.005890,165.001175 
	C193.005890,151.490585 192.896149,138.220428 193.211044,124.960373 
	C193.236664,123.882149 196.115829,122.078545 197.755249,121.974808 
	C203.564865,121.607208 209.411942,121.819595 215.244781,121.832970 
	C237.574600,121.884155 259.914856,121.545929 282.230774,122.131805 
	C298.599579,122.561546 314.352295,126.622406 327.721252,136.459671 
	C333.753967,140.898712 338.690765,147.031601 343.406128,152.966934 
	C345.638214,155.776520 347.495789,156.930191 351.036316,156.914124 
	C382.533173,156.771133 414.030914,156.828033 445.528412,156.833115 
	C452.621643,156.834259 452.784454,157.005661 452.788147,164.162003 
	C452.793427,174.494507 452.623749,184.830902 452.864929,195.157761 
	C452.972595,199.767059 451.251160,201.259293 446.729492,201.238281 
	C417.565796,201.102798 388.401123,201.169037 359.236786,201.169083 
	C357.438934,201.169098 355.641083,201.169083 353.536194,201.169083 
	C350.621826,228.829529 335.913849,247.096832 309.876556,257.077728 
	C322.997406,285.450378 335.969604,313.501617 348.941803,341.552826 
	C349.242798,341.506958 349.543793,341.461090 349.844788,341.415192 
	C349.844788,311.461639 349.844788,281.508087 349.844788,251.373230 
	C366.513367,251.373230 382.597260,251.373230 399.206024,251.373230 
	C399.206024,253.191238 399.205994,254.804901 399.205994,256.418549 
	C399.205994,307.581146 399.207092,358.743713 399.204742,409.906311 
	C399.204437,417.078369 399.125763,417.160797 391.933868,417.166382 
	C379.934814,417.175659 367.932983,417.019623 355.938171,417.244965 
	C351.449951,417.329224 349.752197,415.979156 349.819122,411.269440 
	C350.055481,394.642181 349.911102,378.009552 349.911102,360.837585 
	C338.123535,360.837585 326.678345,360.614441 315.249023,360.942932 
	C310.398529,361.082306 307.841278,359.556213 305.785980,355.010315 
	C292.655334,325.968262 279.157837,297.092285 265.920654,268.097931 
	C264.552399,265.100983 263.000275,263.912201 259.604401,264.073151 
	C252.792770,264.395996 245.955063,264.169067 238.324081,264.169067 
	C238.324081,266.107758 238.324081,267.856384 238.324081,269.604980 
	C238.324066,297.769409 238.328064,325.933838 238.321030,354.098267 
	C238.319427,360.507538 237.993866,360.802460 231.491455,360.840363 
	C226.494186,360.869507 221.497040,360.924377 215.999939,360.967804 
z"/>
</svg>