<?xml version="1.0" standalone="no"?>
<!DOCTYPE svg PUBLIC "-//W3C//DTD SVG 20010904//EN"
 "http://www.w3.org/TR/2001/REC-SVG-20010904/DTD/svg10.dtd">
<svg version="1.0" xmlns="http://www.w3.org/2000/svg"
 width="156.000000pt" height="161.000000pt" viewBox="0 0 156.000000 161.000000"
 preserveAspectRatio="xMidYMid meet">

<g transform="translate(0.000000,161.000000) scale(0.100000,-0.100000)"
fill="#000000" stroke="none">
<path d="M614 1371 c-27 -12 -36 -83 -23 -175 12 -85 35 -130 96 -187 78 -73
86 -75 137 -40 51 36 89 78 119 135 18 34 21 58 22 148 0 58 -4 110 -8 114
-11 12 -318 16 -343 5z m154 -88 l-3 -88 -80 0 -80 0 -3 50 c-2 27 -1 64 3 82
6 34 15 37 123 41 l43 2 -3 -87z m129 81 l52 -7 6 -52 c4 -29 4 -67 0 -84 l-7
-31 -79 0 -79 0 0 90 0 90 28 0 c15 0 50 -3 79 -6z m-127 -294 c0 -55 -4 -100
-9 -100 -20 0 -111 93 -130 133 -32 66 -31 67 59 67 l80 0 0 -100z m174 78
c-16 -53 -46 -98 -91 -137 -26 -22 -51 -41 -55 -41 -5 0 -8 45 -8 100 l0 100
81 0 c79 0 80 0 73 -22z"/>
<path d="M1095 1230 c-4 -6 -1 -18 7 -27 11 -15 11 -16 -4 -10 -10 3 -18 2
-18 -4 0 -20 33 -4 36 18 4 24 -11 40 -21 23z"/>
<path d="M441 1196 c6 -13 20 -27 30 -29 15 -4 13 1 -9 24 -33 35 -35 36 -21
5z"/>
<path d="M1132 1195 c-6 -14 -10 -25 -9 -25 2 0 13 11 25 25 15 17 17 25 9 25
-8 0 -19 -11 -25 -25z"/>
<path d="M1184 1195 c-3 -8 -3 -18 0 -24 3 -5 0 -12 -6 -14 -8 -3 -6 -6 5 -6
14 -1 16 4 11 25 -5 21 -4 25 6 19 9 -5 11 -4 6 3 -10 16 -15 15 -22 -3z"/>
<path d="M381 1170 c6 -16 15 -33 21 -36 6 -4 5 2 -1 14 -14 27 -14 39 1 24
15 -15 28 -16 28 -2 0 6 -3 9 -7 8 -5 -1 -18 3 -30 10 -21 12 -22 11 -12 -18z"/>
<path d="M1248 1193 c-11 -3 -18 -13 -17 -26 1 -15 3 -17 6 -6 2 9 14 21 26
27 23 11 16 13 -15 5z"/>
<path d="M159 1177 c5 -5 24 -7 42 -5 33 3 33 4 -8 8 -23 3 -39 2 -34 -3z"/>
<path d="M1365 1180 l-40 -7 37 -2 c20 0 40 4 43 9 3 6 5 9 3 9 -2 -1 -21 -5
-43 -9z"/>
<path d="M305 1170 c-3 -6 1 -7 9 -4 18 7 21 14 7 14 -6 0 -13 -4 -16 -10z"/>
<path d="M350 1164 c0 -6 7 -19 16 -30 14 -18 14 -18 3 6 -14 31 -19 36 -19
24z"/>
<path d="M310 1135 c0 -8 2 -15 4 -15 2 0 6 7 10 15 3 8 1 15 -4 15 -6 0 -10
-7 -10 -15z"/>
<path d="M310 933 c-32 -12 -50 -37 -50 -68 0 -25 12 -42 64 -92 72 -68 88
-108 62 -148 -31 -47 -105 -38 -119 14 -8 31 15 66 43 66 31 0 40 -33 14 -52
-17 -12 -17 -13 3 -13 12 0 23 -6 25 -12 8 -22 30 32 24 56 -13 51 -109 56
-146 9 -24 -31 -25 -51 -5 -80 34 -49 150 -50 201 -2 44 42 30 84 -58 171 -52
51 -66 85 -48 118 16 29 45 22 45 -11 0 -20 4 -25 17 -21 31 8 43 31 26 48
-16 16 -75 27 -98 17z"/>
<path d="M475 820 c-22 -24 -13 -50 18 -50 20 0 23 4 20 24 -3 15 1 25 11 29
18 7 36 -20 36 -56 0 -21 -4 -23 -30 -19 -61 9 -94 -64 -50 -108 23 -23 33
-24 60 -10 13 7 21 7 25 0 3 -5 12 -10 18 -10 9 0 12 28 11 96 0 82 -3 99 -19
110 -28 20 -79 17 -100 -6z m73 -132 c-2 -21 -8 -33 -18 -33 -10 0 -16 12 -18
33 -3 27 0 32 18 32 18 0 21 -5 18 -32z"/>
<path d="M620 814 c-11 -12 -11 -15 1 -12 11 2 14 -14 14 -83 l0 -85 32 -1
c30 -1 31 1 22 24 -14 36 -11 90 6 123 16 31 34 40 36 18 3 -31 -3 -165 -7
-179 -4 -13 2 -17 28 -17 l33 0 -3 86 c-3 67 0 92 12 107 13 17 17 18 26 5 12
-19 13 -111 1 -142 -8 -22 -6 -23 30 -24 34 -1 37 1 29 17 -6 10 -10 49 -10
87 0 86 -15 106 -60 80 -25 -14 -31 -14 -41 -2 -16 19 -32 18 -63 -7 -20 -16
-26 -17 -26 -6 0 14 -20 27 -40 27 -4 0 -13 -7 -20 -16z"/>
<path d="M903 823 c-10 -3 -9 -8 2 -20 17 -16 20 -90 6 -140 -9 -30 -8 -31 22
-31 l32 0 -3 70 c-3 55 0 73 13 89 10 10 22 16 26 13 12 -7 11 -146 0 -177 -9
-23 -8 -25 29 -25 l38 -1 -9 32 c-21 74 0 191 32 172 12 -8 12 -131 0 -153 -8
-15 -4 -17 30 -17 29 0 38 3 34 13 -3 8 -5 42 -5 77 0 47 -5 69 -19 86 -19 24
-20 24 -50 6 -17 -10 -31 -14 -31 -8 0 18 -41 23 -65 7 -20 -13 -25 -13 -35
-1 -13 15 -25 17 -47 8z"/>
<path d="M1168 808 c7 -7 12 -40 12 -79 0 -79 16 -103 62 -97 29 5 29 4 23
-31 -9 -51 -36 -84 -82 -100 -44 -16 -44 -16 -280 48 -159 43 -362 54 -442 23
-52 -20 -84 -59 -84 -103 0 -62 80 -93 119 -46 19 22 19 22 -2 5 -27 -24 -59
-23 -84 2 -25 25 -25 50 0 83 56 72 255 68 565 -10 157 -39 226 -41 273 -6 47
34 62 78 62 180 0 50 4 103 10 117 9 25 -2 37 -15 16 -3 -6 -17 -7 -30 -4 -23
6 -24 5 -15 -27 21 -71 8 -138 -24 -126 -12 5 -16 21 -16 70 0 49 -4 68 -18
80 -22 20 -53 24 -34 5z"/>
<path d="M696 407 c-12 -9 -17 -23 -14 -42 3 -26 8 -30 36 -33 28 -3 32 0 31
20 -1 18 -2 19 -6 5 -3 -12 -12 -17 -26 -15 -31 4 -34 42 -5 62 12 9 18 16 12
16 -6 0 -18 -6 -28 -13z"/>
<path d="M521 373 c-1 -41 0 -43 27 -42 23 2 24 2 5 6 -27 5 -31 30 -5 36 15
4 15 5 0 6 -9 0 -19 9 -21 19 -3 9 -5 -2 -6 -25z"/>
<path d="M580 370 c0 -22 4 -40 8 -40 5 0 7 14 4 30 -5 38 1 38 38 -2 l29 -33
0 45 c-1 37 -3 40 -8 17 l-6 -29 -24 26 c-33 35 -41 33 -41 -14z"/>
<path d="M772 373 c-2 -41 -1 -43 26 -42 22 1 23 2 5 6 -17 3 -23 13 -26 41
l-4 37 -1 -42z"/>
<path d="M845 377 c-17 -41 -19 -61 -4 -34 12 21 39 23 39 2 0 -8 4 -15 9 -15
8 0 -13 66 -25 79 -2 2 -11 -12 -19 -32z"/>
<path d="M922 369 c1 -40 2 -41 5 -9 l5 35 29 -35 28 -35 -1 45 c-1 31 -2 36
-5 16 l-5 -28 -29 28 -29 28 2 -45z"/>
<path d="M1020 373 c-5 -41 -4 -43 21 -43 15 0 32 7 39 15 16 20 4 65 -17 65
-14 0 -14 -2 3 -14 15 -12 17 -18 8 -33 -21 -34 -42 -28 -46 14 l-3 38 -5 -42z"/>
</g>
</svg>
